<svg width="8" height="8" viewBox="0 0 8 8" fill="none" xmlns="http://www.w3.org/2000/svg">
<g clip-path="url(#clip0)">
<path d="M-1.77336 -3.18855C-2.16389 -3.57908 -2.79705 -3.57908 -3.18758 -3.18855C-3.5781 -2.79803 -3.5781 -2.16486 -3.18758 -1.77434L2.58716 4.0004L-3.18752 9.77507C-3.57804 10.1656 -3.57804 10.7988 -3.18752 11.1893C-2.79699 11.5798 -2.16383 11.5798 -1.7733 11.1893L4.00137 5.41461L9.77605 11.1893C10.1666 11.5798 10.7997 11.5798 11.1903 11.1893C11.5808 10.7988 11.5808 10.1656 11.1903 9.77507L5.41559 4.0004L11.1903 -1.77434C11.5808 -2.16486 11.5808 -2.79803 11.1903 -3.18855C10.7998 -3.57908 10.1666 -3.57908 9.77611 -3.18855L4.00137 2.58618L-1.77336 -3.18855Z" fill="#86969D"/>
</g>
<defs>
<clipPath id="clip0">
<rect width="8" height="8" fill="white"/>
</clipPath>
</defs>
</svg>
